<svg xmlns="http://www.w3.org/2000/svg" data-name="Layer 1" viewBox="0 0 24 30" x="0px" y="0px"><title>diverge, split, arrow, divide, flow</title><path d="M21.79,16.48a.58.58,0,0,1,0,.82l-2.9,2.9a.58.58,0,0,1-.82-.82l1.85-1.85-5,.11h-.05a2.52,2.52,0,0,1-1.8-.76L9,12.67H2.58a.58.58,0,0,1,0-1.16H9L13.12,7.3a2.53,2.53,0,0,1,1.8-.76H20L18.11,4.62a.58.58,0,1,1,.82-.82l2.9,2.9a.58.58,0,0,1,0,.82l-2.9,2.9a.58.58,0,0,1-.82-.82L20,7.69h-5.1a1.36,1.36,0,0,0-1,.41l-3.87,4,3.85,4a1.3,1.3,0,0,0,1,.41L20,16.36l-2-2a.58.58,0,1,1,.82-.82Z"/><text x="0" y="39" fill="#000000" font-size="5px" font-weight="bold" font-family="'Helvetica Neue', Helvetica, Arial-Unicode, Arial, Sans-serif">Created by Hare Krishna</text><text x="0" y="44" fill="#000000" font-size="5px" font-weight="bold" font-family="'Helvetica Neue', Helvetica, Arial-Unicode, Arial, Sans-serif">from the Noun Project</text></svg>